<?xml version="1.0" encoding="UTF-8" standalone="no"?>
<svg width="50px" height="50px" viewBox="0 0 50 50" version="1.1" xmlns="http://www.w3.org/2000/svg" xmlns:xlink="http://www.w3.org/1999/xlink" xmlns:sketch="http://www.bohemiancoding.com/sketch/ns">
    <title>greyReload</title>
    <description>Created with Sketch (http://www.bohemiancoding.com/sketch)</description>
    <defs></defs>
    <g id="Page-1" stroke="none" stroke-width="1" fill="none" fill-rule="evenodd" sketch:type="MSPage">
        <g id="reload8" sketch:type="MSLayerGroup" transform="translate(3.000000, 3.000000)" stroke="#222222" fill="#FFFFFF">
            <path d="M0.0350903937,22.4856751 C0.0350903937,18.5221667 1.0830565,14.6242514 3.06610734,11.213709 L1.32651412,9.22821751 C1.07497175,8.94128531 0.995954801,8.54192938 1.11844633,8.18101412 C1.24124294,7.81994633 1.54754802,7.55147175 1.92173446,7.47733616 L13.7492599,4.91965819 C14.1231412,4.8455226 14.5086158,4.97640395 14.7598531,5.26333616 C15.0110904,5.54996328 15.0907175,5.94886158 14.9676158,6.31023446 L11.492548,18.3742006 C11.3697514,18.7352684 11.0637514,19.0034379 10.689565,19.0778785 C10.3155311,19.1520141 9.9300565,19.0212853 9.67881921,18.7342006 L8.03212429,16.8803531 C7.34003955,18.6664717 6.98903955,20.552048 6.98903955,22.4853701 C6.98903955,31.0372006 13.9464972,37.9946582 22.4984802,37.9948107 C31.0504633,37.9948107 38.0079209,31.0375056 38.0079209,22.4852175 C38.0079209,14.3261836 31.6343955,7.5275226 23.4979379,7.00765819 C22.9359717,6.97196328 22.4984802,6.50564124 22.4984802,5.94230226 L22.4984802,1.1155565 C22.4984802,0.823437851 22.6185311,0.543827682 22.8301073,0.342319207 C23.0419887,0.140963275 23.3270904,0.0347937836 23.618904,0.0494378514 C29.3732599,0.333319207 34.7438192,2.79581073 38.7414972,6.9824887 C42.7530565,11.1838107 44.9620226,16.6893701 44.9620226,22.4853701 C44.9620226,34.8716582 34.8846158,44.9489124 22.4984802,44.9489124 C10.1121921,44.9489124 0.0350903937,34.8716582 0.0350903937,22.4856751 Z" id="Shape" sketch:type="MSShapeGroup"></path>
        </g>
    </g>
</svg>